<?xml version="1.0" standalone="no"?>
<!DOCTYPE svg PUBLIC "-//W3C//DTD SVG 20010904//EN"
 "http://www.w3.org/TR/2001/REC-SVG-20010904/DTD/svg10.dtd">
<svg version="1.0" xmlns="http://www.w3.org/2000/svg"
 width="700.000000pt" height="700.000000pt" viewBox="0 0 700.000000 700.000000"
 preserveAspectRatio="xMidYMid meet">
<metadata>
Created by potrace 1.14, written by Peter Selinger 2001-2017
</metadata>
<g transform="translate(0.000000,700.000000) scale(0.100000,-0.100000)"
fill="#000000" stroke="none">
<path d="M3834 6410 c-340 -90 -549 -416 -489 -761 42 -241 215 -440 450 -519
99 -33 272 -38 374 -10 169 47 291 135 388 280 34 50 80 148 88 188 2 10 7 35
12 57 11 44 10 177 -1 242 -32 193 -172 381 -351 471 -139 70 -326 91 -471 52z"/>
<path d="M3620 4710 c-87 -17 -166 -37 -195 -49 -11 -5 -56 -26 -100 -46 -550
-262 -1022 -1047 -1295 -2156 -17 -69 -33 -137 -35 -150 -3 -13 -8 -37 -12
-54 -4 -16 -7 -32 -8 -35 -1 -3 -5 -25 -9 -50 -14 -75 -15 -84 -21 -110 -3
-14 -7 -36 -10 -50 -3 -14 -7 -36 -10 -50 -3 -14 -7 -43 -10 -65 -2 -22 -7
-51 -10 -65 -11 -58 -40 -271 -51 -380 -2 -25 -7 -65 -10 -90 -10 -90 -23
-260 -29 -410 -3 -63 -8 -146 -10 -185 l-5 -70 28 30 c15 17 54 62 87 100 33
39 76 88 95 109 19 22 44 49 55 61 11 13 49 56 85 96 195 219 443 465 630 623
130 109 322 238 458 306 95 47 268 111 337 123 113 21 152 24 260 22 66 -1
134 -5 150 -9 17 -3 46 -9 65 -12 120 -20 336 -117 491 -219 156 -104 238
-173 412 -349 l119 -120 -7 210 c-3 115 -8 238 -10 274 -2 36 -7 126 -10 200
-4 74 -8 153 -10 175 -2 22 -7 78 -10 125 -7 112 -15 194 -35 378 -6 52 -13
108 -15 125 -3 18 -7 48 -9 67 -11 90 -37 242 -61 355 -9 44 -18 87 -20 95 -2
8 -8 35 -15 60 -7 25 -14 53 -16 63 -7 37 -58 195 -91 282 -133 348 -321 588
-565 725 -87 48 -223 95 -329 114 -64 12 -204 15 -249 6z"/>
</g>
</svg>
